<?xml version="1.0" standalone="no"?><!DOCTYPE svg PUBLIC "-//W3C//DTD SVG 1.1//EN" "http://www.w3.org/Graphics/SVG/1.1/DTD/svg11.dtd"><svg t="1751711169592" class="icon" viewBox="0 0 1024 1024" version="1.1" xmlns="http://www.w3.org/2000/svg" p-id="1396" xmlns:xlink="http://www.w3.org/1999/xlink" width="200" height="200"><path d="M0 0m341.3504 0l341.2992 0q341.3504 0 341.3504 341.3504l0 341.2992q0 341.3504-341.3504 341.3504l-341.2992 0q-341.3504 0-341.3504-341.3504l0-341.2992q0-341.3504 341.3504-341.3504Z" fill="#FF2742" p-id="1397"></path><path d="M762.0096 362.6496v24.32h36.5056c27.2384 0 51.5072 24.2176 48.4864 51.5584v48.64h12.1856c30.3104 0 51.6096 21.1968 48.5376 51.5072v72.8576a40.192 40.192 0 0 1-39.424 39.424h-42.496l-18.176-42.4448h51.5584v-72.8576h-97.1776v112.2304h-51.5584v-115.2H658.944v-48.5888h51.6096v-48.64h-36.4544v-48.4864h36.4032v-24.32h51.5584z m36.5568 72.7552l-36.5568 0.0512v51.712h36.5568v-51.712z m87.9104-48.4352c13.7216 0 24.32 10.0864 24.32 24.32 0 14.336-13.6704 24.1664-24.32 24.1664h-24.3712v-24.1664a24.576 24.576 0 0 1 24.3712-24.32z m-415.6928 212.48l-21.2992 48.64H364.544l27.392-48.64h78.8992z m166.912-215.552v54.5792h-27.392v160.8704h45.4144v48.5376H479.744l24.2688-51.5072h48.64V435.5072h-36.352V383.8976h121.344zM355.328 438.528c-3.0208 33.3824 0 69.8368 6.144 109.2608 2.9696 9.216 2.9696 18.176 5.9904 24.2688 0 0-12.0832 15.1552-30.3104 51.6096-42.496-33.4336-36.352-185.1392-36.352-185.1392h54.528z m127.488-69.8368l-27.3408 75.9296h45.6192l-45.568 91.0336h39.424l-15.2576 39.5776H413.0304c-9.1648 0-15.2064-9.1648-12.1344-18.2784l30.3104-69.8368H403.968c-9.1648 0-15.2576-9.0624-12.1856-18.2272l39.4752-100.1984h51.6096z m-218.4192 0.1024v245.76s-6.144 33.3824-24.3712 33.3824h-48.5376l-18.2272-42.496h36.4032V368.7424h54.784z m-91.136 66.6624v0.6144l0.0512 4.608c0.1024 25.9584-1.2288 140.1856-32.3072 175.8208l-4.2496 4.096-10.496-16.7936a671.232 671.232 0 0 1-19.6608-34.7136c2.9696-9.216 5.9904-15.2064 5.9904-24.32 7.7312-35.84 9.7792-72.8576 6.144-109.312h54.528z" fill="#FFFFFF" p-id="1398"></path></svg>