<?xml version="1.0" standalone="no"?><!DOCTYPE svg PUBLIC "-//W3C//DTD SVG 1.1//EN" "http://www.w3.org/Graphics/SVG/1.1/DTD/svg11.dtd"><svg t="1751712199999" class="icon" viewBox="0 0 1024 1024" version="1.1" xmlns="http://www.w3.org/2000/svg" p-id="1205" xmlns:xlink="http://www.w3.org/1999/xlink" width="200" height="200"><path d="M898.4 263.08571469c-92.64 0-172.18285687-56.16-206.53714312-136.38857157C667.79428531 74.10285687 672.66285688 32 672.66285688 32H627.2v0.20571469L627.13142844 32H507.33714312V678.76571469a141.25714312 141.25714312 0 0 1-3.42857156 41.55428531 120 120 0 0 1-3.97714312 14.74285687c-11.93142844 34.28571469-37.50857156 65.28-71.58857156 79.20000001a138.92571469 138.92571469 0 0 1-53.34857157 13.37142843 139.47428531 139.47428531 0 0 1-79.74857062-257.82857062c23.10857156-15.84 48.41142844-20.57142844 69.39428531-20.84571469h3.90857156c8.91428531 0 17.69142844 0.82285688 26.12571375 2.4 9.87428531 1.71428531 15.90857156 3.77142844 15.90857156 3.77142844V387.88571469a270.24 270.24 0 0 0-47.79428531-2.94857157 282.10285687 282.10285687 0 0 0-104.64 22.01142844c-30.65142844 11.86285688-59.17714313 28.8-84.27428625 50.05714313A325.85142844 325.85142844 0 0 0 102.97142844 543.74857156C95.97714312 555.88571469 69.64571469 603.88571469 66.49142844 682.26285687c-1.85142844 44.36571469 11.45142844 90.24 17.76 109.30285782v0.13714218c3.90857156 10.97142844 19.54285688 49.37142844 45.12 82.01142844 7.40571469 9.46285687 15.29142844 18.51428531 23.79428625 27.08571469 14.81142844 15.01714313 30.85714312 28.52571469 48.13714219 40.45714312 79.95428531 54.37714312 168.89142844 50.74285688 168.89142843 50.74285688 15.36-0.68571469 66.78857156 0 125.34857157-27.70285688a312.68571469 312.68571469 0 0 0 101.89714312-76.11428625c5.55428531-6.85714313 35.79428531-40.52571469 55.47428531-91.88571375 15.01714313-39.22285687 19.88571469-86.19428531 19.88571469-104.98285781V353.12c2.19428531 1.23428531 28.86857156 18.72 28.86857156 18.72s38.60571469 24.54857156 98.67428532 40.45714313c42.99428531 11.52 101.14285687 13.92 101.14285781 13.92V263.08571469h-3.08571469z" fill="#000000" p-id="1206"></path></svg>