<?xml version="1.0" standalone="no"?><!DOCTYPE svg PUBLIC "-//W3C//DTD SVG 1.1//EN" "http://www.w3.org/Graphics/SVG/1.1/DTD/svg11.dtd"><svg t="1751712442926" class="icon" viewBox="0 0 1024 1024" version="1.1" xmlns="http://www.w3.org/2000/svg" p-id="1205" xmlns:xlink="http://www.w3.org/1999/xlink" width="200" height="200"><path d="M514.90133333 988.23822222c-58.57066667 0-115.43466667-11.488-169.01333333-34.144-51.70133333-21.86666667-98.12266667-53.16266667-137.97333333-93.01333334s-71.136-86.272-93.00266667-137.97333333c-22.656-53.568-34.144-110.432-34.144-169.01333333 0-114.25066667 44.02133333-222.112 123.936-303.73333334 28.85333333-29.46133333 76.128-29.952 105.58933333-1.10933333 29.46133333 28.85333333 29.96266667 76.128 1.10933334 105.58933333-52.42666667 53.536-81.30133333 124.29866667-81.30133334 199.25333334 0 157.04533333 127.76533333 284.8 284.8 284.8s284.8-127.76533333 284.8-284.8c0-76.07466667-29.62133333-147.59466667-83.41333333-201.38666667-29.16266667-29.16266667-29.16266667-76.43733333 0-105.6 29.152-29.16266667 76.43733333-29.16266667 105.58933333 0 39.85066667 39.85066667 71.136 86.272 93.01333334 137.97333333 22.656 53.568 34.144 110.432 34.144 169.01333334s-11.488 115.43466667-34.144 169.01333333c-21.86666667 51.70133333-53.16266667 98.12266667-93.01333334 137.97333333s-86.272 71.136-137.97333333 93.01333334c-53.568 22.656-110.432 34.144-169.00266667 34.144zM874.45333333 167.69422222H151.68c-34.61333333 0-62.944-28.32-62.944-62.944 0-34.61333333 28.32-62.944 62.944-62.944h722.77333333c34.61333333 0 62.944 28.32 62.944 62.944 0 34.624-28.32 62.944-62.944 62.944z" p-id="1206"></path><path d="M519.94666667 560.30222222m-159.392 0a159.392 159.392 0 1 0 318.784 0 159.392 159.392 0 1 0-318.784 0Z" fill="#3755D9" p-id="1207"></path></svg>