<?xml version="1.0" standalone="no"?><!DOCTYPE svg PUBLIC "-//W3C//DTD SVG 1.1//EN" "http://www.w3.org/Graphics/SVG/1.1/DTD/svg11.dtd"><svg t="1751710768166" class="icon" viewBox="0 0 1024 1024" version="1.1" xmlns="http://www.w3.org/2000/svg" p-id="1490" xmlns:xlink="http://www.w3.org/1999/xlink" width="200" height="200"><path d="M773.36381 122.489905c-56.466286 0-108.592762 30.378667-138.971429 73.825524C608.256 83.382857 512.633905 0.78019 404.041143 0.78019c-130.340571 0-238.933333 112.981333-238.933333 256.390096 0 143.36 108.592762 256.341333 238.933333 256.341333h21.699047l347.574858-17.408c95.573333 0 173.787429-82.553905 173.787428-186.806857 4.388571-104.301714-73.825524-186.806857-173.787428-186.806857z m-451.82781 138.971428c0-78.165333 52.175238-138.971429 121.660952-138.971428s121.660952 60.806095 121.660953 138.971428c0 78.262857-52.175238 139.068952-121.660953 139.068953-69.534476 0-121.660952-60.806095-121.660952-139.020191z m482.255238 134.729143c-43.398095 0-82.553905-39.107048-82.553905-91.233524 0-52.175238 34.767238-95.573333 78.214096-95.573333 43.446857 0 82.553905 39.058286 82.553904 91.184762 0 52.175238-34.767238 95.573333-78.214095 95.573333z m-417.060571 234.593524s-21.74781-26.038857-82.553905-34.767238a26589.379048 26589.379048 0 0 1-147.748572-21.699048s-65.145905-13.019429-73.825523 47.786667c-8.728381 60.806095-13.06819 212.894476-4.388572 269.360762 8.728381 56.515048 60.854857 78.214095 82.553905 82.553905 17.408 8.679619 126.000762 39.107048 143.36 43.446857 17.408 4.388571 52.175238 13.019429 86.942476-30.427429 34.718476-47.786667 108.592762-147.69981 108.592762-147.699809l8.679619-13.019429v-65.194667l-121.61219-130.340571zM325.87581 904.533333c0 8.679619 0 21.699048-13.019429 26.038857-17.408 4.388571-52.175238-4.33981-52.175238-4.339809-34.718476-4.388571-73.825524-21.699048-91.184762-30.427429-4.388571-4.33981-17.408-4.33981-21.74781-30.378666-8.679619-34.767238-4.388571-95.573333-4.388571-117.321143 0-34.767238 4.388571-78.214095 4.388571-78.214095 0-13.019429 8.679619-21.699048 21.74781-17.359238 0 0 34.718476 0 65.145905 8.679619 17.359238 4.33981 60.806095 8.679619 82.553904 21.699047 17.359238 8.728381 17.359238 26.087619 17.359239 30.427429 0 0 4.388571 47.786667 4.388571 95.573333a999.131429 999.131429 0 0 0-13.06819 95.573333z" fill="#F88700" p-id="1491"></path><path d="M538.770286 722.017524l-121.660953-126.000762s-8.679619-17.359238 8.679619-26.038857c17.408-13.019429 30.427429-13.019429 86.893715-17.408 56.515048-4.33981 256.341333-39.058286 369.322666-8.679619 34.767238 8.679619 34.767238 47.786667 34.767238 69.534476 0 21.699048-4.388571 26.038857-17.408 26.038857-17.359238 0-147.748571 26.087619-165.059047 30.427429-17.408 4.388571-39.107048 13.019429-34.767238 56.466285v82.553905c0 8.728381 0 39.107048 21.699047 39.107048 21.74781 0 47.786667-8.679619 60.854857-13.019429 13.019429-4.388571 21.699048-4.388571 21.699048-13.019428 0-13.06819 4.388571-26.087619-13.019428-26.087619-17.408 4.388571-47.786667 8.679619-47.786667 8.679619v-91.184762s126.000762-30.47619 173.787428-34.816v160.768c0 13.019429 0 43.446857-60.854857 56.466285-60.806095 17.408-165.059048 39.107048-186.806857 43.446858-21.699048 4.388571-91.233524 34.767238-182.467047-13.019429l69.485714-95.573333 4.388571-69.534477c-4.388571-13.019429-8.728381-30.378667-21.747809-39.107047z" fill="#F88700" p-id="1492"></path></svg>