<?xml version="1.0" standalone="no"?><!DOCTYPE svg PUBLIC "-//W3C//DTD SVG 1.1//EN" "http://www.w3.org/Graphics/SVG/1.1/DTD/svg11.dtd"><svg t="1751711174021" class="icon" viewBox="0 0 1024 1024" version="1.1" xmlns="http://www.w3.org/2000/svg" p-id="1548" xmlns:xlink="http://www.w3.org/1999/xlink" width="200" height="200"><path d="M271.99881823 66.80103899l161.16069414 161.2104044h157.631265l161.2104044-161.16069414a49.73512477 49.73512477 0 0 1 70.34003153 70.34003153l-90.92008316 90.82066261H835.11675259a173.9859437 173.9859437 0 0 1 173.98594371 173.9859437v397.68215704a173.9859437 173.9859437 0 0 1-173.98594371 173.98594371H188.88324741a173.9859437 173.9859437 0 0 1-173.98594371-173.98594371v-397.68215704a173.9859437 173.9859437 0 0 1 173.98594371-173.9859437h103.64591217L201.6587867 137.09136023a49.73512477 49.73512477 0 0 1 70.34003153-70.34003152v0.04971028zM835.11675259 327.43198265H188.88324741a74.56540445 74.56540445 0 0 0-74.21743256 67.40712562L114.31784297 401.99738709v397.68215704a74.56540445 74.56540445 0 0 0 67.40712562 74.21743256l7.15827882 0.34797189h646.23350518a74.56540445 74.56540445 0 0 0 74.21743256-67.40712563l0.34797188-7.15827882v-397.68215704c0-41.18495839-33.38665984-74.56540445-74.56540444-74.56540444z m-521.95783111 149.13080889a49.71026963 49.71026963 0 0 1 49.71026963 49.71026963v99.42053926a49.71026963 49.71026963 0 0 1-99.42053926 0v-99.42053926a49.71026963 49.71026963 0 0 1 49.71026963-49.71026963z m397.68215704 0a49.71026963 49.71026963 0 0 1 49.71026963 49.71026963v99.42053926a49.71026963 49.71026963 0 0 1-99.42053926 0v-99.42053926a49.71026963 49.71026963 0 0 1 49.71026963-49.71026963z" fill="#1296DB" p-id="1549"></path></svg>